<svg xmlns="http://www.w3.org/2000/svg" x="0px" y="0px" viewBox="0 0 100 100">
	<path class="hamburger-line hamburger-line-1" d="M78,29H4.5C2,29,0,27,0,24.5v0C0,22,2,20,4.5,20H78c2.5,0,4.5,2,4.5,4.5v0C82.5,27,80.5,29,78,29z"/>
	<path class="hamburger-line hamburger-line-2" d="M78,82H4.5C2,82,0,80,0,77.5v0C0,75,2,73,4.5,73H78c2.5,0,4.5,2,4.5,4.5v0C82.5,80,80.5,82,78,82z"/>
	<path class="hamburger-line hamburger-line-3" d="M95.5,55.5H22c-2.5,0-4.5-2-4.5-4.5v0c0-2.5,2-4.5,4.5-4.5h73.5c2.5,0,4.5,2,4.5,4.5v0C100,53.5,98,55.5,95.5,55.5z"/>
</svg>
