<svg xmlns="http://www.w3.org/2000/svg" x="0px" y="0px" viewBox="0 0 100 50">
<path d="M45.3,28.8c-0.1-0.1-0.2-0.2-0.2-0.4c-0.2-0.7-0.3-1.4-0.4-2.1c-0.2-1.3-0.2-2.5-0.1-3.8  c0.1-0.5,0.1-1.1,0.1-1.6c0.1-0.7,0.2-1.5,0.3-2.2c0.1-0.3-0.3-0.8-0.6-0.8c-0.5,0-0.8,0.3-0.9,0.7c-0.1,0.7-0.2,1.5-0.4,2.2  c-0.2,0.8-0.5,1.6-0.8,2.5c-0.2,0.5-0.4,1-0.6,1.4c-0.1,0.1-0.1,0.3-0.2,0.4c-0.1,0-0.1,0.2-0.2,0.2c-0.1,0-0.1-0.2-0.1-0.2  c0-0.5,0.1-1,0.1-1.6c0.1-0.8,0.2-1.6,0.3-2.4c0.2-0.2,0.1-0.4,0.2-0.7c0.1-0.2,0.3-0.4,0.5-0.5c0.2-0.1,0.2-0.2,0.2-0.3  c0,0,0,0,0,0l0,0c0.3-0.2,0.1-0.4-0.1-0.6c0,0,0,0,0,0c0-0.1-0.1-0.2-0.2-0.2c-0.2,0-0.3,0-0.5,0c-0.2,0-0.4,0.1-0.5,0.2  c-0.3,0.4-0.5,0.8-0.6,1.3c-0.1,0.4-0.2,0.9-0.3,1.3c-0.2,0.6-0.2,1.2-0.2,1.8c0,0,0,0,0,0c-0.1,0.2,0,0.4-0.1,0.5c0,0,0,0,0,0  c-0.1,0.1,0,0.3,0,0.4c0,0,0,0,0,0c0,0.1,0,0.2,0,0.3c0,0,0,0,0,0C40.1,24.8,40,25,40,25.1c-0.2,0.3-0.4,0.6-0.6,0.9  c-0.3,0.5-0.6,0.9-1,1.3c-0.1,0.2-0.3,0.1-0.3-0.1c-0.1-0.4-0.2-0.8-0.2-1.3c0-0.4,0.1-0.7,0.1-1.1c0.1-0.6,0.2-1.1,0.3-1.7  c0,0,0,0,0,0c0,0,0,0,0,0c0-0.2,0.2-0.4,0.2-0.7c0.1-0.2,0.1-0.3,0.2-0.5c0,0,0,0,0,0c0,0,0,0,0,0c0.2-0.6,0.3-1.2,1-1.4  c0,0,0,0,0,0c0.1-0.2,0.4-0.4,0.4-0.7c0-0.3,0-0.5-0.3-0.5c0,0-0.1,0-0.1,0c-0.2-0.1-0.4,0-0.5,0.1c-0.6,0.4-1.2,1-1.4,1.7  c-0.1,0.4-0.3,0.7-0.4,1c-0.1,0.2-0.1,0.4-0.2,0.6c-0.3,0.6-0.6,1.3-0.9,1.9c-0.3,0.6-0.5,1.2-0.9,1.7c-0.2,0.3-0.4,0.5-0.5,0.8  c-0.1,0.2-0.2,0.3-0.4,0.4c-0.1-0.2-0.1-0.5-0.2-0.7c0-0.5-0.1-0.9-0.1-1.4c0-0.5,0-1,0-1.5c0-0.8,0-1.6,0.1-2.4  c0.1-0.4,0.1-0.8,0.1-1.2c0-0.3-0.2-0.6-0.5-0.6c-0.5-0.1-0.7,0-0.9,0.4c-0.2,0.5-0.2,0.9-0.3,1.4c-0.1,0.8-0.2,1.6-0.3,2.3  c-0.2,1.1-0.2,2.2-0.8,3.1c0,0,0,0.1,0,0.1c-0.1,0.3-0.2,0.7-0.5,0.9c0-0.7,0.1-1.4,0.1-2.1c0.1-0.7-0.1-1.3-0.2-1.9  c-0.1-0.5-0.3-1-0.7-1.3l0,0v0c-0.1-0.1-0.2-0.1-0.3-0.2c0,0,0,0,0,0c-0.4-0.2-1.1-0.2-1.4,0.1v0l0,0c-0.3,0.1-0.5,0.3-0.7,0.5  c-0.1,0.1-0.2,0.1-0.3,0c-0.1-0.4-0.3-0.6-0.4-1c-0.2-0.4-0.3-0.7-0.8-0.9c0,0,0,0,0,0c0,0,0,0-0.1,0l0,0l0,0  c-0.4-0.1-0.8-0.1-1.2,0.2c-0.4,0.3-0.6,0.7-0.9,1.1c-0.3,0.5-0.4,1.1-0.6,1.7c-0.2,0.5-0.2,1.1-0.4,1.6c-0.2,0.5-0.3,1.1-0.5,1.6  c-0.2,0.6-0.4,1.3-0.7,2c-0.1,0.2-0.2,0.4-0.2,0.6c-0.1,0.3-0.3,0.7-0.4,1c-0.1,0.2-0.2,0.4-0.5,0.4c-0.2-0.4-0.3-0.8-0.4-1.3  c0-0.5-0.2-0.9-0.2-1.4c0-0.4-0.1-0.7-0.1-1.1c0.1-0.6,0.2-1.2,0.4-1.8c0.1-0.2,0.1-0.5,0.1-0.7c0.2-0.6,0.2-1.2,0.2-1.9  c0-0.6-0.1-1.1,0-1.7c0-0.1,0-0.2-0.1-0.3c0,0,0,0,0,0c0-0.1,0-0.1-0.1-0.2c-0.3-0.3-1-0.2-1.2,0.2c-0.1,0.2-0.1,0.4-0.1,0.6  c-0.1,0.3-0.3,0.6-0.3,0.9l0,0v0c0,0,0,0,0,0c0,0,0,0,0,0C19.1,23,19,23.3,19,23.6c0,0,0,0,0,0c-0.2,0.2-0.1,0.5-0.1,0.8  c0,0.5,0,1,0.1,1.6l0,0c0,0.1-0.1,0.2-0.1,0.3c0,0.3,0,0.5,0,0.8c0,0.3-0.2,0.6-0.3,0.8c-0.2,0.4-0.4,0.7-0.5,1  c-0.2,0.4-0.4,0.6-0.6,1c-0.1,0.1-0.2,0.1-0.2,0.2c-0.1,0.3-0.5,0.4-0.6,0.8c0,0.1-0.3,0.3-0.4,0.2c-0.3-0.2-0.4,0-0.6,0.1  c-0.2,0.2-0.3,0.4-0.2,0.6c0.1,0.3,0.2,0.5,0.6,0.5c0,0.1,0.1,0.1,0.2,0.1c0.5,0.1,0.8-0.3,1.1-0.6h0c0,0,0,0,0,0l0,0h0  c0.1,0,0.2-0.1,0.2-0.2c0.4-0.6,0.9-1.2,1.2-1.9c0-0.1,0.1-0.1,0.2-0.1c0.1,0,0.1,0.1,0.1,0.2c0.1,0.4,0.2,0.8,0.2,1.3  c0.1,0.6,0.3,1.1,0.8,1.5c0,0.1,0.1,0.1,0.1,0.2c0,0,0,0,0,0c0.2,0.2,0.4,0.2,0.7,0.1c0.3,0,0.5-0.2,0.7-0.3c0,0,0,0,0,0  c0,0,0,0,0,0c0,0,0,0,0,0c0,0,0,0,0,0c0.3-0.3,0.5-0.7,0.7-1c0.2-0.4,0.5-0.9,0.7-1.4c0.1-0.2,0.1-0.4,0.2-0.6  c0.1-0.4,0.3-0.8,0.4-1.2c0.2-0.5,0.3-1,0.5-1.6c0.1-0.3,0.1-0.6,0.2-0.9c0.2-0.4,0.2-0.9,0.4-1.3c0.2-0.4,0.4-0.8,0.5-1.2  c0.1-0.2,0.2-0.4,0.3-0.7c0.1-0.2,0.2-0.2,0.4-0.1c0.1,0.1,0.1,0.2,0.1,0.3c0.1,0.2,0.1,0.4,0.2,0.5c0,0.1,0,0.3,0.1,0.4  c0.2,0.5,0.2,0.9-0.1,1.3c0,0.1-0.1,0.1-0.1,0.2l0,0c-0.1,0.3-0.4,0.6-0.4,1c0,0,0,0.1-0.1,0.1c-0.2,0.3-0.2,0.6-0.3,0.9  c-0.1,0.3-0.1,0.6-0.2,0.9c-0.1,0.4-0.1,0.9-0.2,1.3c-0.1,0.5,0.3,0.8,0.5,1.2c0,0.1,0.1,0.1,0.2,0.1c0.2-0.1,0.5-0.1,0.7-0.3  c0.2-0.1,0.2-0.4,0.3-0.5c0.3-0.3,0.4-0.7,0.6-1c0.2-0.5,0.4-1.1,0.5-1.6c0-0.5,0.1-1,0-1.5c-0.1-0.3,0-0.7,0-1  c0-0.2,0.1-0.4,0.2-0.5c0.2-0.2,0.4-0.4,0.7-0.6c0.3-0.3,0.4-0.4,0.8-0.2c0,0,0,0,0,0c0.1,0.4,0.3,0.7,0.3,1.1c0,0,0,0,0,0  c0,0,0,0,0,0c0,0,0,0,0,0c0,0,0,0,0,0c0.1,0.4,0,0.8,0.1,1.2c0,0,0,0.1,0,0.1c0,0,0,0,0,0c-0.1,0.4-0.2,0.9-0.1,1.4  c0,0.3-0.1,0.7-0.4,0.8c-0.1,0.1-0.2,0.1-0.2,0.3c-0.1,0.3,0,0.6-0.1,0.9c0,0.2,0,0.3,0.1,0.5c0,0,0,0.1,0,0.1c0,0,0,0,0,0  c0,0.1,0,0.2,0,0.3c0,0.3,0.4,0.5,0.6,0.4c0.2-0.1,0.3-0.1,0.5-0.2c0.1,0,0.2-0.1,0.2-0.2c0-0.3,0.2-0.6,0.2-0.8  c0-0.2,0.1-0.2,0.3-0.2c0.2,0,0.3,0.1,0.5,0c0.4-0.2,0.6-0.6,0.8-1c0.2-0.4,0.3-0.8,0.6-1.1c0,0.3,0.1,0.5,0.1,0.7  c0,0.5,0.2,0.9,0.5,1.3c0.1,0.1,0.2,0.2,0.5,0.2c0.5-0.1,0.8-0.4,1-0.8c0.3-0.2,0.4-0.5,0.6-0.7c0,0,0,0,0,0  c0.1-0.2,0.3-0.4,0.4-0.6c0.2-0.3,0.4-0.7,0.6-1.1c0,0,0.1-0.1,0.1-0.1c0.1,0,0.1,0.1,0,0.1c-0.1,0.5,0,1,0.2,1.4  c0.1,0.5,0.4,0.9,0.9,1.2c0,0,0,0,0,0c0.1,0.1,0.2,0.1,0.3,0.1c0.5,0,0.8-0.3,1.1-0.6c0,0,0,0,0,0c0.4-0.3,0.7-0.8,0.9-1.3  c0.1-0.1,0.2,0,0.3,0.1c0,0.1,0.1,0.1,0.2,0.1l0,0c0.1,0.1,0.1,0.2,0.2,0.3c0.1,0.2,0.3,0.2,0.4,0.1c0,0,0,0,0.1,0c0,0,0,0,0,0  c0.2,0,0.3-0.1,0.4-0.2c0.2-0.1,0.3-0.4,0.5-0.6c0.3-0.3,0.5-0.7,0.7-1c0.2-0.3,0.4-0.7,0.5-1.1c0-0.1,0.1-0.2,0.2-0.2  c0.1,0.7,0.1,1.5,0.2,2.2c0,0.1,0,0.2,0,0.2c0.2,0.7,0.3,1.4,0.5,2.2c0.1,0.5,0.3,0.8,0.7,1c0.3,0.1,0.5,0,0.7-0.4c0,0,0,0,0,0  c0,0,0,0,0,0c0,0,0,0,0,0c0-0.1,0.1-0.1,0.1-0.2C45.4,29.2,45.5,28.9,45.3,28.8z M37.9,28.6C37.9,28.6,38,28.6,37.9,28.6L37.9,28.6  C38,28.6,38,28.6,37.9,28.6C38,28.6,38,28.6,37.9,28.6C38,28.6,38,28.6,37.9,28.6C38,28.6,38,28.6,37.9,28.6  C38,28.6,38,28.6,37.9,28.6C37.9,28.6,37.9,28.6,37.9,28.6C37.9,28.6,37.9,28.6,37.9,28.6z M40.1,24.7  C40.1,24.7,40.1,24.7,40.1,24.7C40.1,24.7,40.1,24.7,40.1,24.7z M100,8c0-0.2-0.1-0.5,0-0.7c0-0.8-0.1-1.5-0.1-2.3  c0-0.5-0.1-1-0.1-1.4c0,0,0,0,0,0c-0.1-0.7-0.2-1.5-0.2-2.2c0-0.4-0.2-0.6-0.5-0.7c0,0-0.1,0-0.1-0.1c-0.3-0.2-0.5-0.1-0.7,0.1  c-0.3,0.3-0.5,0.7-0.7,1c-0.1,0.2-0.1,0.4-0.2,0.6c-0.2,0.3-0.3,0.7-0.4,1.1c-0.1,0.1-0.1,0.3-0.2,0.5c0,0,0,0,0,0l0,0  c-0.1,0-0.1,0.1-0.1,0.2c-0.3,0.7-0.4,1.4-0.6,2.1C96,6.2,96,6.3,96,6.5l0,0v0c0,0.1-0.1,0.1-0.1,0.2c0,0,0,0,0,0  c-0.1,0.6-0.2,1.1-0.3,1.7c-0.1,0.6-0.2,1.3-0.2,1.9c-0.1,0.7-0.2,1.5-0.3,2.2c-0.1,0.7-0.1,1.5-0.2,2.2c-0.1,0.6-0.1,1.2-0.1,1.8  c0,0,0,0,0,0c-0.1,0.2,0,0.5,0,0.7c0,0.6-0.1,1.1-0.1,1.7c0,0.4,0,0.8,0,1.2c0,0.4,0,0.8,0.1,1.2c0,0.2,0,0.3,0,0.5  c0,0.2,0.1,0.5-0.1,0.7c0,0,0,0,0,0c0,0,0,0,0,0c-0.3,0.3-0.6,0.5-0.9,0.8c-0.2,0.2-0.4,0.2-0.7,0c0,0,0,0,0,0  c-0.1-0.3-0.2-0.6-0.2-0.9c0-0.5,0.1-1,0.2-1.5c0.1-0.4,0-0.7-0.4-0.9c-0.2-0.1-0.7,0-0.9,0.2c-0.1,0.1-0.2,0.2-0.2,0.4  c0,0.4-0.1,0.9-0.2,1.3c0,0,0,0,0,0c-0.1,0.2-0.1,0.5-0.2,0.7c-0.3,0.8-0.9,1.4-1.4,2.1c-0.2,0.2-0.3,0.2-0.4,0  c-0.2-0.4-0.3-0.8-0.3-1.3C89,22.8,89,22.2,89,21.6c0,0,0,0,0,0c0-0.1,0-0.1,0-0.2c0-0.5,0-1,0-1.5c0-0.3,0.1-0.5-0.1-0.8  c-0.2-0.3-0.5-0.2-0.8-0.3c-0.3,0-0.4,0.2-0.5,0.4c0,0.3-0.1,0.6-0.1,0.9c-0.1,0.5,0,1-0.2,1.5c-0.1,0.3-0.2,0.6-0.3,0.9  c0,0,0,0,0,0l0,0c0,0,0,0,0,0c0,0,0,0,0,0l0,0C87,22.6,87,22.8,86.9,23c0,0,0,0,0,0c-0.1,0.1-0.2,0.3-0.3,0.4  c-0.2,0.1-0.2,0.3-0.4,0.3c0,0,0,0,0,0c0,0,0,0,0,0c-0.1-0.1-0.1-0.1-0.2-0.2c0,0,0-0.1,0-0.1c0,0,0,0,0,0c0-0.5-0.2-1-0.2-1.6  c0-0.3-0.3-0.5-0.5-0.6c-0.1-0.1-0.2,0-0.2,0c-0.2,0.1-0.3,0.3-0.3,0.5c0,0.1-0.1,0.3-0.2,0.3c-0.1,0-0.2-0.1-0.2-0.1  c-0.1-0.1,0-0.2,0-0.2c0-0.6,0.1-1.2,0.1-1.8c0.1-0.5,0.1-0.9,0.2-1.4c0.1-0.9,0.3-1.8,0.3-2.7c0,0,0-0.1,0.1-0.1  c0-0.3,0.1-0.6,0.1-0.9c0,0,0,0,0,0c0.1-0.1,0.1-0.2,0.1-0.3c0-0.4,0-0.7,0.1-1.1c0.1-0.3,0.1-0.6,0.1-0.9c0-0.2,0.1-0.5,0.1-0.7  c0,0,0,0,0,0c0,0,0,0,0,0c0-0.2,0.1-0.5-0.1-0.6c-0.2-0.2-0.8-0.3-1.1-0.2c-0.1,0-0.1,0.1-0.1,0.1c-0.1,0.2-0.2,0.4-0.2,0.6  c0,0,0,0,0,0c0,0.2-0.1,0.5-0.1,0.7c-0.1,0.4-0.3,0.8-0.1,1.2c0,0,0,0,0,0c0,0.1-0.1,0.2-0.1,0.3c-0.1,0.9-0.1,1.7-0.2,2.6  c-0.1,0.7-0.2,1.3-0.1,2c0,0,0,0,0,0c-0.1,0.1,0,0.3-0.1,0.4c-0.2,0.4-0.3,0.8-0.4,1.2c-0.2,0.7-0.6,1.2-0.9,1.8  c-0.1,0.2-0.3,0.3-0.4,0.5c-0.3,0.4-0.6,0.8-1.1,1.2c-0.3,0.2-0.3,0.2-0.4-0.2c-0.1-0.5,0-1.1,0.2-1.6c0-0.1,0-0.2,0-0.2  c0.1-0.1,0.1-0.2,0.1-0.3c-0.1-0.3-0.5-0.6-0.9-0.5c-0.4,0-0.6,0.1-0.6,0.5v0c0,0-0.1,0.1-0.1,0.1c0,1-0.5,1.9-1,2.7  c-0.2,0.2-0.4,0.3-0.5,0.5c0,0.1-0.1,0.1-0.1,0.2c0,0,0,0,0,0l0,0c-0.1,0-0.1,0.1-0.2,0.1c-0.1,0.1-0.2,0-0.2-0.1  c0-0.2-0.1-0.4-0.1-0.6c0-0.4,0-0.7,0.1-1c0.1-0.2,0.1-0.5,0.2-0.7c0.2-0.5,0.3-1.1,0.4-1.7c0.1-0.2,0.1-0.4-0.1-0.6c0,0,0,0,0,0  c-0.4-0.5-1-0.4-1.3,0.2c-0.1,0.3-0.2,0.7-0.3,1c0,0,0,0,0,0c0,0,0,0.1-0.1,0.1c-0.1,0.1,0,0.3,0,0.4c0,0,0,0,0,0  c-0.1,0.3-0.2,0.6-0.2,0.9c0,0.4-0.2,0.7-0.4,1c-0.3,0.4-0.6,0.7-0.8,1.1C74.1,25,73.9,25,73.8,25c-0.2-0.3-0.2-0.7-0.2-1  c-0.1-1,0-1.9-0.1-2.9c0-0.1,0-0.1,0-0.2c0-0.1,0-0.2,0-0.3c0,0,0,0,0,0c0-0.2,0-0.4,0-0.6c-0.1-0.3-0.1-0.7-0.5-0.8  c-0.4-0.1-0.8-0.2-1.2,0.1c-0.5,0.3-0.7,0.9-0.9,1.3c-0.1,0.1-0.1,0.2-0.1,0.3c-0.2,0.2-0.3,0.6-0.4,0.8l0,0c0,0,0,0.1,0,0.1  c0,0.5-0.3,1-0.4,1.4c0,0.1,0,0.2-0.2,0.2c0,0,0,0,0,0c-0.1-1,0-2-0.2-2.9c0-0.2,0.1-0.4,0-0.7c0-0.3,0-0.5,0-0.8c0,0,0,0,0,0  c0,0,0-0.1,0.1-0.1c0.1-0.1,0.3,0,0.5-0.1c0.5-0.2,1.1-0.2,1.6-0.4c0,0,0.1,0,0.1,0c0.2,0.1,0.5,0,0.7-0.1c0.1,0,0.2-0.1,0.2-0.2  c0-0.1-0.1-0.2-0.3-0.1c-0.1,0.1-0.3,0.1-0.4,0c-0.3-0.2-0.7-0.2-1-0.1c-0.4,0.1-0.9,0-1.3,0.1c0,0,0,0,0,0c-0.1,0-0.1-0.1-0.2-0.1  c-0.1-0.2,0-0.4,0-0.6c-0.1-0.6,0-1.2,0-1.8c0-0.8,0-1.6,0.2-2.4c0.1-0.4,0.1-0.9,0.2-1.3c0-0.1,0-0.3,0-0.4  c-0.1-0.3-0.9-0.5-1.1-0.3c-0.1,0.1-0.2,0.3-0.2,0.5c0,0.4-0.1,0.9-0.2,1.3c-0.1,0.6-0.1,1.3-0.1,1.9c0,0,0,0,0,0.1c0,0,0,0,0-0.1  c0,0.1,0,0.3,0,0.4l0,0l0,0c0,0,0,0,0,0c0,0,0,0,0,0c-0.1,0.4-0.1,0.7,0,1.1c0,0,0,0.1,0,0.1c0,0,0,0,0,0v0v0l0,0  c0,0.6-0.1,1.2,0,1.8c0,0,0,0-0.1,0.1c0,0,0,0,0,0c-0.1,0-0.1,0.1-0.2,0.1c-0.5,0-1.1,0.1-1.6,0.2c-0.4,0-0.9,0.1-1.3,0.2  c0,0,0,0,0,0c0,0,0,0,0,0c0-0.1,0-0.1,0-0.2c0-0.5,0.1-0.9,0-1.4c0-0.7,0-1.3,0-2c0-0.3,0.2-0.6,0-0.9c0-0.2,0.1-0.3,0.1-0.5  c0-0.5,0-0.9,0.2-1.3c0.1-0.4,0.1-0.6-0.2-0.8c-0.2-0.2-0.7-0.2-1,0c-0.1,0.1-0.2,0.1-0.2,0.2c0,0.3-0.1,0.5-0.2,0.8  c-0.1,0.7-0.2,1.3-0.2,2c0,0,0,0,0,0c-0.1,0.4,0,0.8,0.1,1.1c-0.1,0.1-0.1,0.2-0.1,0.3c0,0.3,0.1,0.6,0.1,0.9c0,0.4,0,0.8,0,1.1  c0,0.2,0.1,0.5-0.1,0.7c0,0,0,0,0,0c0,0-0.1,0-0.1,0c0,0,0,0,0,0c-0.6,0.1-1.2,0.2-1.8,0.3c-0.3,0-0.5,0.1-0.7,0.2  c-0.3,0.1-0.3,0.4-0.2,0.5c0.3,0.3,0.6,0.5,1,0.4c0.4,0,0.7,0,1.1-0.2c0.1-0.1,0.3-0.1,0.4-0.1c0.2,0,0.4-0.1,0.5,0.1l0,0  c0,0,0,0.1,0,0.1c0,0,0,0,0,0c0,0,0,0,0,0c0,0,0,0.1,0,0.1c0,0.8,0,1.5-0.1,2.2c0,0.4-0.1,0.8-0.2,1.3c0,0,0,0,0,0  c-0.1,0.1-0.1,0.2-0.1,0.4c0,0,0,0,0,0c-0.2,0.5-0.4,1.1-0.9,1.5c-0.2,0.2-0.3,0.2-0.5,0c-0.1-0.1-0.2-0.2-0.3-0.4  c-0.2-0.4-0.2-0.9-0.4-1.3c0-0.3,0-0.6,0-0.8c0-0.5-0.7-0.8-1.1-0.6c-0.1,0-0.1,0.1-0.1,0.1c-0.1,0.3-0.2,0.5-0.2,0.8c0,0,0,0,0,0  c-0.1,0.1,0,0.3-0.1,0.4c-0.3,0.6-0.5,1.3-0.7,2c0,0,0,0,0,0c-0.1,0.1-0.1,0.3-0.2,0.4c-0.1,0.1-0.2,0.1-0.2,0c0-0.4-0.3-0.7-0.3-1  c-0.1-0.6-0.1-1.3-0.1-2c0-0.1-0.1-0.3,0-0.4c0.2-0.6,0-0.9-0.6-0.9c-0.4-0.1-0.7,0.2-0.7,0.6c0,0.5,0,1,0,1.4  c0,0.6,0.2,1.2,0.2,1.7c0,0.2-0.1,0.3,0,0.5c0.3,0.4,0.3,1,0.6,1.4c0.1,0.2,0.2,0.4,0.4,0.5v0c0.1,0.2,0.2,0.4,0.5,0.4  c0.4-0.1,0.7-0.3,0.9-0.7c0.1-0.4,0.3-0.7,0.5-1.1c0.1-0.1,0.1-0.2,0.1-0.3c0-0.2,0.1-0.4,0.1-0.6c0-0.1,0.1-0.2,0.2-0.2  c0.1,0,0.1,0.1,0.2,0.2c0.1,0.3,0.3,0.5,0.5,0.7c0.6,0.7,1.7,0.6,2.3,0c0.3-0.3,0.5-0.6,0.7-1c0.1-0.1,0.1-0.2,0.2-0.2  c0.1,0,0.1,0.2,0.2,0.3c0,0,0,0,0,0c0,0.1,0,0.1,0.1,0.2l0,0c0,0.2,0,0.4,0.1,0.6c0.1,0.2,0.1,0.4,0.2,0.6c0.1,0.5,0.3,0.9,0.6,1.3  c0.4,0.5,0.6,0.5,1.1,0.2c0.3-0.2,0.7-0.5,1-0.8c0.1-0.1,0.3-0.1,0.3-0.2c0.1-0.4,0.4-0.6,0.5-1c0.1-0.1,0.1-0.3,0.2-0.5  c0-0.1,0-0.4,0.2-0.3c0.2,0,0,0.2,0.1,0.3c0,0,0,0,0,0c0,0,0,0,0,0c0,0,0,0.1,0,0.1c-0.1,0.5,0.2,0.9,0.1,1.4c0,0,0,0.1,0,0.1  c0.2,0.5,0.7,0.6,1.2,0.3c0.1,0,0.1-0.1,0.2-0.1c0,0,0,0,0,0c0.1-0.2,0.1-0.4,0.2-0.5c0,0,0,0,0,0c0.4-0.9,0.4-1.8,0.7-2.7  c0.1-0.2,0-0.4,0.1-0.5c0,0,0,0,0,0c0.1-0.1,0.1-0.2,0.2-0.3c0.1-0.4,0.1-0.8,0.3-1.2c0,0,0,0,0,0c0-0.2,0.1-0.3,0.2-0.4  c0.1-0.4,0.3-0.9,0.5-1.3c0-0.1,0.1-0.1,0.1-0.2c0.1,0,0.1,0.1,0.1,0.2c0,0.5,0.2,1,0,1.5c0,0.1,0,0.3,0,0.4c0.1,0.3,0.1,0.7,0,1  c0,0.9,0.3,1.8,0.9,2.5c0,0,0,0,0,0c0,0.1,0.1,0.1,0.2,0.1c0.4,0.2,0.9,0.1,1.3-0.3h0c0,0,0-0.1,0.1-0.1c0.1-0.1,0.3-0.2,0.3-0.3  c0,0,0,0,0,0c0.1-0.1,0.2-0.2,0.3-0.4c0.1-0.1,0.2-0.1,0.3,0c0.2,0.3,0.4,0.5,0.6,0.7c0.2,0.1,0.3,0.2,0.6,0.2  c0.5-0.1,0.9-0.4,1.2-0.8c0.3-0.3,0.5-0.7,0.8-1c0,0,0,0,0,0c0.2-0.1,0.3-0.2,0.4,0c0.1,0.1,0.2,0.1,0.2,0.2  c0.3,0.3,0.8,0.4,1.2,0.2c0.3-0.2,0.7-0.4,0.9-0.8c0.3-0.4,0.6-0.9,1.2-0.9c0,0,0,0,0,0c0,0,0,0,0,0c0.2,0,0.1,0.1,0.1,0.3  c0,0.4,0,0.8-0.1,1.2c0,0.3,0,0.6,0,0.9c-0.1,0.5-0.1,1.1-0.1,1.6c0,0,0,0,0,0c0,0.1-0.1,0.2-0.1,0.2c0,0.6-0.1,1.2-0.1,1.8  c0,0.3,0,0.7,0,1c0,0.3-0.1,0.5,0,0.8c0.1,0.4-0.1,0.7,0.1,1.1c-0.2,0.6,0,1.1,0,1.7c0,0.7,0,1.4,0.1,2.1c0,0.6,0.1,1.1,0.2,1.7  c0.1,0.4,0.1,0.9,0.2,1.3c0.1,0.6,0.2,1.2,0.3,1.8c0,0,0,0,0,0c0,0,0,0,0,0c0.1,0.3,0.1,0.5,0.2,0.8c0,0,0,0,0,0c0,0,0,0.1,0,0.1  c0,0.3,0.1,0.7,0.2,1c0,0,0,0,0,0c0,0.2,0.3,0.2,0.3,0.4c0,0.5,0.2,1,0.3,1.4c0.1,0.2,0.2,0.3,0.4,0.2c0.2-0.1,0.4-0.1,0.6-0.3  c0.3-0.4,0.4-0.9,0.5-1.3c0.2-0.5,0.3-1,0.3-1.5c0,0,0,0,0,0c0.2-0.2,0.2-0.5,0.2-0.7c0.1-1,0.3-1.9,0.3-2.9c0-0.3-0.1-0.6,0-0.9  c0.2-0.8,0-1.6,0.1-2.5c0-0.3-0.1-0.6-0.1-0.8c0-0.4,0-0.7,0-1.1c0-0.3,0-0.6-0.1-0.9c0,0,0,0,0,0c0,0,0-0.1,0-0.1c0,0,0,0,0,0  c0-0.1,0-0.2,0-0.3c0-0.6-0.1-1.1-0.2-1.7c0,0,0-0.1,0-0.1c0-0.3-0.1-0.6-0.1-0.9C86,28,85.9,27.5,85.8,27c-0.1-0.6-0.1-1.3-0.2-1.9  c0-0.2,0-0.2,0.1-0.1c0.1,0,0.2,0.1,0.3,0.1c0.4,0.1,0.8,0,1.1-0.3c0,0,0,0,0,0c0.2-0.1,0.4-0.2,0.5-0.4c0.2,0,0.2,0.1,0.3,0.2  c0.3,0.6,0.5,1.2,1.1,1.6c0.6,0.3,1.3,0.2,1.7-0.3c0.3-0.4,0.7-0.8,1-1.2c0.1-0.1,0.1-0.2,0.2-0.3C92,24,92,24,92.2,24.2  c0.1,0.2,0.3,0.3,0.5,0.4c0.4,0.3,0.8,0.2,1.3,0.1c0.2-0.1,0.4-0.2,0.6-0.3c0.1,0,0.2-0.1,0.3,0c0,0,0,0,0,0c0,0.4,0.1,0.7,0.1,1  c0,0.3,0,0.6,0.2,0.8c0,0,0,0,0,0l0,0c0,0.6,0,1.1,0.2,1.6c0,0,0,0,0,0l0,0c0,0.6,0.4,1.2,0.3,1.8c0,0.1,0,0.1,0.1,0.1  c0,0,0,0,0,0.1c0,0.3,0.1,0.6,0.2,0.9c0,0,0,0,0,0l0,0c0,0,0,0,0,0c0,0.2,0.1,0.3,0.1,0.5c0.1,0.4,0.3,0.7,0.3,1  c0,0,0.1,0.1,0.1,0.1c0.1,0.1,0.1,0.3,0.2,0.4c0.1,0.3,0.3,0.5,0.6,0.6c0.1,0,0.2,0.1,0.3,0.1c0.2,0.1,0.4,0.1,0.5-0.1  c0.3-0.2,0.2-0.6,0.4-0.8c0.2-0.2,0.2-0.5,0.1-0.8c0.1-0.2,0-0.3,0-0.5c0-0.1-0.1-0.2-0.2-0.2c-0.1,0-0.2,0.1-0.2,0.2  c0,0.3-0.3,0.5-0.4,0.8c0,0.1-0.1,0.1-0.2,0c0,0,0,0,0,0c-0.2-0.3-0.3-0.7-0.3-1.1c-0.2-0.6-0.4-1.2-0.5-1.9  c-0.1-0.4-0.1-0.8-0.2-1.2c-0.1-0.5-0.3-1.1-0.3-1.6c-0.1-0.7-0.1-1.5-0.2-2.3c0,0,0,0,0,0c0-0.3,0-0.6,0-0.9c0-0.1,0-0.2,0.1-0.3  c0.1-0.4,0.5-0.6,0.7-0.9c0.3-0.4,0.6-0.9,0.9-1.4c0.1-0.3,0.4-0.6,0.5-0.9c0.1-0.3,0.3-0.7,0.4-1c0,0,0,0,0,0  c0.1-0.3,0.2-0.5,0.2-0.8c0,0,0,0,0,0c0-0.3,0.1-0.6,0.2-0.9c0,0,0,0,0,0c0.1-0.2,0.1-0.3,0.1-0.5v0c0-0.1,0.1-0.1,0-0.2  c0-0.6,0.2-1.3,0.2-1.9c0-0.3,0.1-0.7,0.2-1c0.1-0.4,0.1-0.8,0.1-1.2c0-0.4,0-0.8,0.1-1.2c0.1-0.2,0.1-0.4,0.1-0.6  c0-0.1,0-0.3,0-0.4c0.1-0.3,0.1-0.7,0.1-1c0-0.2-0.1-0.4,0-0.6C100,8.1,100,8,100,8z M68.2,18.3C68.2,18.3,68.2,18.3,68.2,18.3  C68.1,18.3,68.1,18.3,68.2,18.3C68.2,18.3,68.2,18.3,68.2,18.3z M66.9,25.8c-0.2,0.5-0.5,1-0.9,1.4c0,0,0,0,0,0  c-0.1-0.1-0.1-0.2-0.1-0.2c-0.1-0.1-0.1-0.3-0.1-0.4c0,0,0-0.1,0.1-0.1c-0.1-0.2,0-0.4-0.2-0.5c0,0,0,0,0,0c0,0,0,0,0,0  c0,0,0-0.1,0.1-0.1c0-0.1,0-0.2,0-0.3c0,0-0.1-0.1-0.1-0.1c0-0.5-0.1-1-0.2-1.5c0,0,0.1-0.1,0.1-0.2c0-0.1,0-0.3,0-0.4  c0,0,0-0.1,0-0.1c0,0,0-0.1,0-0.1c0-0.1,0-0.2,0-0.4c0-0.5,0-1.1-0.2-1.6c0,0-0.1-0.1-0.1-0.1c0-0.1,0-0.1,0-0.2c0,0,0,0,0,0  c0,0,0,0,0,0c0,0,0,0,0-0.1c0-0.2,0-0.4,0-0.6c0-0.1,0-0.1,0.1-0.2c0,0,0.1,0,0.1,0c0.1,0,0.1,0,0.2,0c0.7-0.1,1.5-0.2,2.2-0.3  c0.5-0.1,0.5-0.1,0.5,0.4c0,0,0,0.1,0,0.1c0.1,0.7,0,1.4,0.1,2.1c0,0.1,0,0.2,0,0.3c-0.2,0.4-0.2,0.8-0.2,1.2c0,0.2-0.1,0.4-0.3,0.6  c-0.1,0.1-0.1,0.1-0.1,0.3c0,0.1-0.1,0.3-0.2,0.4c-0.1,0.2-0.1,0.4,0,0.5c0,0.1-0.1,0.2-0.1,0.3C67,25.6,66.9,25.7,66.9,25.8z   M75.5,21.8C75.5,21.8,75.5,21.9,75.5,21.8C75.5,21.9,75.5,21.9,75.5,21.8C75.5,21.9,75.5,21.8,75.5,21.8z M83.5,36.4L83.5,36.4  C83.5,36.4,83.5,36.4,83.5,36.4C83.5,36.4,83.5,36.4,83.5,36.4C83.5,36.4,83.5,36.4,83.5,36.4z M84.7,26.6  C84.7,26.6,84.7,26.6,84.7,26.6C84.7,26.6,84.7,26.6,84.7,26.6C84.7,26.6,84.7,26.6,84.7,26.6C84.7,26.6,84.7,26.6,84.7,26.6z   M84.6,41.2c0-0.3-0.1-0.7-0.2-1c0-0.1,0-0.1-0.1-0.1c0,0,0,0,0,0c0.1-0.1,0.1-0.2,0-0.3c-0.1-0.3-0.1-0.7-0.1-1  c0-0.2,0-0.4-0.1-0.6c-0.1-0.1-0.1-0.1-0.2-0.2c0-0.1-0.1-0.3,0-0.4c0-0.3,0-0.5-0.1-0.7c0,0,0,0,0,0c0,0,0,0,0,0  c-0.1-0.2,0-0.3,0-0.5c0,0,0-0.1,0-0.1c0.1-0.7,0-1.4-0.1-2c0-0.4,0-0.8,0-1.2c0-0.3,0.1-0.7-0.1-1c0,0,0,0,0,0c0,0,0,0,0,0  c0,0,0,0,0,0c0,0,0-0.1,0-0.1c0,0,0.1,0,0.1,0c0.1-0.1,0.1-0.1,0.1-0.2c0-0.1,0-0.1-0.1-0.2c0.1-0.3,0-0.6,0-1c0,0,0.1-0.1,0.1-0.2  c0.1-0.3,0-0.5,0-0.8c0.1-0.8,0.2-1.6,0.2-2.5c0-0.1,0-0.1,0-0.2c0-0.1,0-0.2-0.1-0.3c0-0.1,0-0.3,0-0.4l0,0c0.1-0.2,0-0.4,0-0.6  c0,0,0.1,0,0.1-0.1c0.1-0.2,0.1-0.3,0.1-0.5c0,0,0-0.1,0-0.1c0,0,0,0,0,0c0,0.1,0,0.3,0.1,0.4c0.1,0.2,0.2,0.5,0.2,0.7  c0,0.3,0.1,0.6,0.1,0.8c0,0-0.1,0-0.1,0.1c0,0.3,0.1,0.7,0.1,1c0,0,0,0,0,0c0,0.1,0,0.2,0,0.3c0.1,0.3,0.1,0.7,0.1,1  c0.1,0.3,0,0.7,0.1,1c0.1,0.3,0.1,0.6,0.1,1c0,0.1,0,0.2,0,0.2c0,0,0.1,0,0.1,0.1c0,0.1,0.1,0.1,0.1,0.2c0,0.1,0,0.1,0,0.2  c0,0,0,0.1,0,0.2c-0.1,0.4,0,0.9,0,1.3c0.1,0.4,0.1,0.9,0.1,1.3c0,0.1,0,0.2,0.1,0.3c0,0,0,0,0,0c0,0.4-0.1,0.8,0,1.2  c0.1,0.3,0.2,0.6-0.1,0.9c-0.1,0.4-0.1,0.9-0.1,1.3c-0.1,0.5-0.1,1-0.1,1.5c0,0.4,0,0.8-0.1,1.3c-0.1,0.3-0.1,0.6,0,0.9  c-0.1,0-0.1,0.1-0.2,0.1c0,0,0,0,0,0c0,0,0,0,0,0c0-0.1,0-0.1,0-0.2C84.7,41.6,84.6,41.4,84.6,41.2z M97.8,4.7  c0.1-0.6,0.5-1.2,0.7-1.7c0-0.1,0.1-0.2,0.1-0.3c0,0.1,0,0.2,0,0.2c0,0.1,0,0.3,0.2,0.3c0,0,0.1,0,0.1,0c0,0,0,0,0,0  c0,0-0.1,0-0.1,0c-0.1,0.1-0.1,0.2-0.1,0.3c0,1.1,0.1,2.2,0.1,3.2c0,0.8,0,1.6,0,2.4c0,0.2,0,0.5,0,0.7c-0.1,1.2-0.3,2.5-0.4,3.7  c0,0,0,0.1,0,0.1c-0.1,0.1-0.1,0.2-0.1,0.3c-0.1,0.5-0.1,1-0.3,1.5c-0.1,0.2-0.1,0.4-0.1,0.6c0,0.1,0,0.2,0.1,0.3c0,0,0,0,0,0  c-0.1,0.1-0.3,0.7-0.2,0.8c0,0,0.1,0.1,0.1,0.1c0,0,0,0,0,0c0,0,0,0,0,0c0,0,0,0-0.1,0c-0.1,0-0.2,0.1-0.2,0.2  c0,0.2-0.1,0.4-0.1,0.6c0,0.1,0,0.1,0,0.2c0,0,0,0,0,0c0,0,0,0,0,0c-0.2,0-0.2,0.2-0.2,0.3c-0.2,0.5-0.5,1-0.7,1.5  c-0.1,0.1-0.2,0.3-0.2,0.4c0,0,0,0,0,0c-0.2,0-0.2-0.1-0.2-0.2c0-0.1,0.1-0.2,0-0.3c-0.1-0.4,0-0.8-0.1-1.3c0-0.4,0.1-0.8,0-1.2  c0-0.5,0-1,0-1.5c0-0.4,0.2-0.8,0.1-1.3c0-0.1,0-0.1-0.1-0.1c0-0.1,0-0.2,0-0.3c0.1-0.1,0.1-0.3,0.1-0.4c-0.1-0.2,0-0.5,0.1-0.7  c0-0.7,0.1-1.3,0.2-2c0-0.2,0.1-0.4,0.1-0.6c0.1-0.7,0.1-1.5,0.3-2.2c0-0.2,0.1-0.3,0-0.5c0,0,0,0,0,0C97,7.6,97,7.6,97,7.5  c0.1-0.4,0.3-0.9,0.3-1.3c0-0.1,0-0.1-0.1-0.2c0,0,0,0,0,0c0.3-0.3,0.3-0.6,0.3-1c0,0,0,0,0,0c0,0,0,0,0,0  C97.7,4.9,97.8,4.8,97.8,4.7z M95.4,28c0,0,0-0.1,0-0.1C95.4,27.9,95.4,27.9,95.4,28z M97.8,32.1C97.7,32.1,97.7,32,97.8,32.1  C97.7,32,97.7,32.1,97.8,32.1z M96.1,24C96.1,24,96.1,24,96.1,24C96.1,24,96.1,24,96.1,24z M57.6,31C57.6,31,57.6,31,57.6,31  c-0.1-0.2-0.2-0.3-0.3-0.4c-0.1-0.6-0.6-1-0.9-1.4c-0.4-0.6-0.9-1-1.4-1.4c-0.3-0.2-0.5-0.5-0.8-0.6c0,0,0,0,0,0c0,0,0,0-0.1-0.1  c0,0,0-0.1-0.1-0.1c-0.5-0.3-0.9-0.7-1.5-0.9c-0.2-0.1-0.3-0.3-0.1-0.4c0.2-0.1,0.3-0.3,0.4-0.4c0,0,0,0,0,0  c0.1-0.1,0.2-0.2,0.3-0.3c0.7-0.7,1.2-1.4,1.8-2.1c0.3-0.4,0.6-0.8,0.9-1.2c0,0,0,0,0,0c0.1-0.1,0.2-0.3,0.3-0.4c0,0,0,0,0-0.1  c0.1-0.1,0.1-0.2,0.2-0.3c0.4-0.5,0.7-1,1-1.5c0,0,0,0,0,0c0,0,0,0,0,0c0,0,0,0,0,0l0,0c0.3-0.5,0.5-0.9,0.8-1.4  c0.2-0.3,0.3-0.7,0.4-1c0.2-0.5,0.4-1,0.4-1.5c0,0,0,0,0,0l0,0c0,0,0-0.1,0-0.1c0-0.5,0.2-1,0.3-1.5c0.1-0.3,0.2-0.7,0.1-1  c0-0.5,0-0.9-0.1-1.4c-0.1-1-0.5-1.8-1.1-2.6h0l0,0c-0.1-0.1-0.1-0.1-0.2-0.2c-0.4-0.3-0.8-0.7-1.3-0.8c-0.2-0.1-0.4-0.1-0.6-0.1  c-1-0.2-1.7,0.2-2.4,0.8c-0.4,0.4-0.7,0.8-0.8,1.3c-0.1,0.3-0.3,0.7-0.4,1c-0.1,0.2-0.1,0.4-0.2,0.5c-0.2,0.5-0.4,1.1-0.5,1.6  c0,0.3-0.1,0.6-0.2,0.9c0,0.1,0,0.1,0,0.2c-0.1,0-0.1,0-0.2,0c0,0,0,0,0,0c-0.1-0.5-0.1-1.1-0.1-1.6c0-0.8,0-1.6,0-2.5  c0-0.3,0-0.7,0-1l0,0c0,0,0,0,0,0c0-0.6,0-1.2,0-1.8c0-0.4-0.3-0.7-0.7-0.7c-0.3,0-0.6,0.3-0.5,0.7c0,0.4,0.1,0.8,0.1,1.2  c0,0.9,0,1.9,0,2.8c0,0.1,0,0.3,0.1,0.4c0,0,0,0,0,0l0,0c-0.1,0.4,0,0.8,0,1.1c0,0.2-0.1,0.4,0,0.6c0,0.4,0.1,0.7,0.1,1.1  c0,0.7,0,1.4,0.1,2.2c0,0.4,0.2,0.9,0.1,1.3c0,0.2,0,0.3,0,0.5c0,0.5,0,0.9,0,1.4c0,1.3-0.2,2.6-0.3,3.9c0,0.2,0,0.3-0.1,0.5  c0,0,0,0,0,0c-0.1,0.3-0.1,0.5-0.1,0.8c0,0,0,0,0,0c0,0.5-0.4,0.6-0.7,0.7c-0.3,0.1-0.6,0.2-0.7,0.5c-0.4,0.6-0.8,1.2-0.4,2  c0.1,0.2,0.2,0.3,0.4,0.2c0.4-0.1,0.7-0.2,1-0.4c0,0,0,0,0.1-0.1c0,0,0,0-0.1,0.1c0.3-0.1,0.2,0.1,0.2,0.3c0.1,0.5,0,1.1,0.3,1.5  c0.1,0.2,0.3,0.3,0.5,0.2c0.3-0.1,0.7-0.3,0.8-0.6c0.1-0.4,0.3-0.8,0.3-1.3c0,0,0,0,0,0c0-0.1,0.1-0.2,0.1-0.3  c0.1-0.1,0.1-0.2,0.1-0.3c0-0.1,0-0.3,0.1-0.4c0,0,0,0,0,0c0,0,0.1,0,0.1,0c0.1,0.1,0.2,0.1,0.3,0.1c0.1,0.1,0.2,0.1,0.3,0.2  c0,0,0,0,0,0c0.6,0.4,1.2,0.9,1.7,1.3c0.5,0.4,0.9,0.9,1.2,1.4c0.3,0.3,0.5,0.7,0.8,1.1c0.2,0.6,0.8,1,1.1,1.6  c0.1,0.2,0.5,0.2,0.6,0c0.1-0.2,0.1-0.5,0-0.7C58.1,31.7,57.9,31.3,57.6,31z M53.5,12c0.2-0.8,0.5-1.5,0.9-2.2C55,9,55.7,8.6,56.6,9  C56.7,9,56.8,9.1,57,9.1c0,0,0,0,0,0c0,0,0,0,0,0c0,0,0,0,0,0c0,0.1,0.1,0.2,0.2,0.3c0.6,0.6,0.9,1.4,1,2.2c0,0,0,0.1,0,0.1  c0,0.1,0,0.1,0,0.2c0,0.7,0,1.5-0.1,2.2c-0.2,1.2-0.6,2.4-1.1,3.5c-0.1,0.3-0.4,0.6-0.5,1c0,0,0,0,0,0c0,0,0,0-0.1,0  c-0.1,0.2-0.3,0.3-0.4,0.6c0,0.1-0.2,0.2-0.1,0.4c-0.2,0.1-0.3,0.2-0.3,0.4c-0.1,0.1-0.1,0.2-0.2,0.3c-0.3,0.3-0.5,0.6-0.8,0.9  c-0.3,0.5-0.6,0.9-1,1.3c-0.1,0.2-0.2,0.3-0.2,0.5c-0.1,0.1-0.2,0.2-0.2,0.3c0,0,0,0-0.1,0c-0.1,0-0.1,0.1-0.2,0.1c0,0,0,0.1,0,0.1  c0,0,0,0,0,0.1c-0.1,0.1-0.3,0.2-0.4,0.4c0,0-0.1,0-0.1,0c-0.1,0-0.1,0.1-0.1,0.1c0,0,0,0,0,0.1c0,0-0.1,0.1-0.1,0.1  c-0.1-0.1-0.1-0.2-0.1-0.3c0,0,0,0,0,0c0-0.1,0-0.2,0-0.3c0-0.1,0-0.1,0.1-0.2c0-0.2,0-0.3,0-0.5c0-0.5-0.1-1.1-0.1-1.6  c0-0.2,0-0.3,0-0.5c0-0.5,0-0.9,0.1-1.4c0-0.1,0-0.3-0.1-0.4c0,0,0,0,0,0c0-0.1,0-0.1,0-0.2c0-0.1,0-0.1,0-0.2c0-0.2,0-0.4,0.1-0.5  c0.1-0.3,0.1-0.7,0.1-1c0,0,0,0,0-0.1c0-0.2,0.2-0.4,0.2-0.7c0-0.2,0.1-0.3,0-0.5c0,0-0.1,0-0.1-0.1c0.1-0.5,0.2-0.9,0.3-1.4  c0,0,0.1,0,0.1-0.1c0.1-0.2,0.1-0.4,0.2-0.6c0-0.1,0-0.1-0.1-0.2c0-0.1,0-0.1,0-0.2c0.1-0.1,0.1-0.2,0.1-0.3  c0.1-0.3,0.2-0.5,0.2-0.8c0,0,0,0,0.1,0C53.5,12.2,53.5,12.1,53.5,12z M50.2,24.8c0,0,0,0.1,0,0.1C50.1,24.9,50.1,24.9,50.2,24.8z   M34.3,12.8c-0.2-0.4,0-0.6,0.5-0.6c0.3,0,0.6,0,0.9-0.1c0.2-0.1,0.3,0,0.3,0.2c-0.1,0.3-0.4,0.6-0.6,0.9c-0.1,0.2-0.4,0.2-0.7,0.1  C34.4,13.2,34.4,13,34.3,12.8z M17.4,16.7c0.2-0.6,0.4-1.1,0.4-1.8c0.1-0.6,0.3-1.3,0.2-1.9c0-0.2,0-0.4,0-0.5c0-0.3,0.1-0.7-0.1-1  c0,0,0,0,0,0c0-0.6-0.1-1.2-0.2-1.7c-0.1-0.4-0.3-0.9-0.3-1.3c-0.1-0.2-0.2-0.3-0.3-0.5c-0.3-0.2-0.5-0.5-0.9-0.5  c-0.2,0-0.4,0-0.6,0c-0.2,0-0.5,0-0.7,0.1C14.6,7.8,14.2,8,14,8.4c-0.2,0.2-0.3,0.5-0.4,0.8c-0.3,0.6-0.5,1.2-0.7,1.8  c-0.3,0.8-0.4,1.7-0.6,2.6c-0.2,0.8-0.2,1.7-0.2,2.5c0,0,0,0,0,0c-0.1,0.4,0.1,0.7,0,1.1l0,0c0,0.4,0,0.9-0.1,1.3  c-0.1,0.6,0.1,1.3,0.1,1.9c0,0.2-0.1,0.4,0,0.7c0,0,0,0,0,0c0,0.1,0,0.2,0,0.3c0,0.2-0.1,0.3,0.1,0.5c0,0,0,0,0,0c0,0,0,0,0,0  c0,0,0,0,0,0C12,22,12,22.1,12,22.2c0,0.1,0,0.3-0.1,0.4c-0.2,0.4-0.6,0.7-1,1c-0.4,0.3-0.9,0.6-1.2,1c-0.5,0.5-1.1,0.9-1.6,1.3l0,0  c-0.4,0.2-0.7,0.6-1.1,0.7l0,0h0c-0.2,0.1-0.4,0.3-0.7,0.4c-0.5,0.2-1.1,0.4-1.6,0.6c0,0,0,0,0.1,0c0,0-0.1,0-0.1,0c0,0-0.1,0-0.1,0  c-0.1,0-0.2,0.1-0.3,0.1c0,0,0,0,0,0c-0.6,0.2-1.1,0.2-1.7,0c-0.6-0.2-1.1-0.6-1.3-1.2C1.1,26.2,1,25.8,1,25.4  c-0.1-0.7,0-1.4,0.1-2.1c0.1-0.4,0.2-0.8,0.2-1.2c0-0.1,0-0.3-0.1-0.3C1.1,21.8,1,21.9,1,22c-0.3,0.6-0.5,1.3-0.8,1.9  C0,24.6,0,25.3,0,26c0.1,0.8,0.2,1.6,0.9,2.2c0.4,0.4,0.9,0.7,1.5,0.8c0.5,0.1,1,0.1,1.5,0.1c0.3,0,0.5,0,0.7-0.1  c0.3-0.2,0.6-0.1,0.9-0.3c0.2,0,0.3-0.1,0.5-0.2c0,0,0,0,0,0c0.4-0.1,0.7-0.4,1.1-0.6c0.3-0.2,0.6-0.3,0.8-0.5c0,0,0,0,0,0  c0,0,0,0,0,0v0c0,0,0,0,0,0c0.1-0.1,0.3-0.2,0.4-0.3c0.6-0.3,1.1-0.8,1.7-1.3c0,0,0,0,0,0h0c0.3-0.2,0.6-0.5,0.8-0.7  c0.1,0,0.2-0.1,0.2-0.2c0.2-0.2,0.5-0.4,0.8-0.7c0.1-0.1,0.2-0.2,0.3,0c0,0,0,0,0,0c0,0,0,0,0,0c0,0,0,0,0,0c0,0.4,0,0.7,0,1.1  c0.1,0.8,0,1.6,0.1,2.4c0,0.4,0.1,0.8,0.1,1.2c0,0.5,0.2,1.1-0.5,1.3c0,0,0,0,0,0c-0.4,0.5-0.8,0.9-1.1,1.4  c-0.2,0.3-0.2,0.6-0.3,0.9c-0.2,0.3-0.4,0.7-0.5,1.1c-0.1,0.2,0,0.4-0.1,0.6c0,0,0,0,0,0c-0.1,0.1,0,0.3,0,0.4c0,0.1,0,0.3,0,0.4  c-0.1,0.4-0.2,0.8-0.1,1.3c0,0.5,0.1,1,0.1,1.5c0,0.4,0.1,0.9,0.1,1.3c0,0.8,0.2,1.6,0.3,2.3c0,0,0,0,0,0c0,0,0,0,0,0  c0.1,0.1,0,0.3,0.1,0.4c0,0,0,0,0,0c0,0,0,0,0,0c0,0,0,0,0,0c0,0.2,0,0.3,0.1,0.5c0,0,0,0.1,0.1,0.1c0,0,0,0,0,0  c0.1,0.3,0,0.7,0.2,1c0.1,0.3,0.1,0.7,0.3,1c0,0.1,0,0.2,0,0.3c0.2,0.7,0.4,1.3,0.7,1.9l0,0c0.1,0.3,0.3,0.6,0.4,0.9  c0.1,0.3,0.2,0.5,0.4,0.7c0,0,0,0,0,0c0.2,0.4,0.4,0.7,0.7,1c0.6,0.6,1.2,0.1,1.3-0.5c0-0.1,0.1-0.2,0.1-0.3h0  c0.2-0.3,0.2-0.6,0.2-1c0-0.4,0-0.9,0-1.3c0-0.3-0.1-0.5-0.1-0.8c0.1-0.9,0.1-1.8,0-2.7c0,0,0,0,0,0c0.1-0.5,0-1,0-1.5  c0-0.1,0-0.1,0-0.2c0,0,0,0,0,0c0,0,0,0,0,0c0,0,0,0,0,0c0-0.3,0.1-0.5,0-0.8c-0.1-0.7-0.1-1.5-0.2-2.2c0-0.1,0-0.2-0.1-0.3  c0-0.1,0-0.2,0-0.3c0,0,0,0,0,0c0,0,0,0,0,0c0,0,0,0,0,0c-0.1-0.3,0-0.6-0.1-0.9c0,0,0,0,0,0c0,0,0,0,0-0.1c0.1-0.3,0-0.7,0-1  c0,0,0,0,0,0c0,0,0,0,0-0.1c0,0,0,0,0,0c0,0,0,0,0,0c0-0.3,0.1-0.6-0.1-0.9c0,0,0,0,0,0c-0.1-0.3-0.1-0.6-0.1-0.9  c0-0.2,0-0.5-0.1-0.7c0-0.2,0-0.4,0-0.6c0-0.6,0-1.1-0.1-1.7c0,0,0,0,0,0c0,0,0,0,0,0c0-0.2,0-0.4,0.2-0.6c0.3-0.1,0.4-0.2,0.3-0.5  c0,0,0,0,0,0c0,0-0.1-0.1-0.1-0.1c-0.3-0.1-0.4-0.2-0.4-0.5c-0.2-0.9-0.1-1.8-0.2-2.7c0-0.4,0-0.8-0.1-1.2c0,0,0,0.1,0,0.1  c0,0,0-0.1,0-0.1c0.1-0.4,0.1-0.8,0-1.2c0-0.2-0.1-0.3-0.1-0.5c0-0.3,0.1-0.5,0.3-0.6c0,0,0,0,0,0c0.4-0.4,0.8-0.7,1.1-1.2  c0.2-0.2,0.4-0.4,0.6-0.6c0.5-0.8,1.1-1.6,1.6-2.5C17,17.9,17.3,17.3,17.4,16.7z M12.9,46.8c0-0.1,0-0.1,0-0.2  c-0.1-0.3-0.2-0.5-0.3-0.8c-0.1-0.1-0.2-0.3-0.3-0.4c0-0.1-0.1-0.2-0.1-0.4c0-0.1,0-0.2,0-0.4c0,0,0-0.1,0-0.1c0-0.1,0-0.2-0.1-0.3  c-0.1-0.2,0-0.4-0.2-0.5c0,0,0,0,0,0c0,0,0-0.1,0-0.1c0,0,0,0-0.1-0.1c0-0.2,0-0.3-0.1-0.5c0.1-0.2,0-0.4,0-0.5  c-0.2-0.7-0.3-1.5-0.4-2.3c0-0.1-0.1-0.3-0.2-0.4c0,0,0-0.1,0-0.1c0-0.4-0.1-0.9-0.1-1.3c0-0.6,0-1.2-0.1-1.8  c-0.1-0.6,0.1-1.2,0.1-1.9c0-0.5,0.1-0.9,0.3-1.4c0,0,0-0.1,0-0.1c0,0,0-0.1,0.1-0.1c0.2-0.6,0.4-1.2,0.8-1.7c0-0.1,0.1-0.2,0.2-0.1  c0.1,0,0.1,0.1,0.1,0.2c0.1,0.5,0,1.1,0.1,1.6c0,0,0,0.1,0,0.1c0,0.1,0,0.1,0,0.2c0,0.7,0.1,1.3,0.1,1.9c0.1,0.9,0.2,1.8,0.2,2.6  c0,0.8,0.1,1.5,0.1,2.3c0,0.5,0,1,0.1,1.5c0,0.4,0,0.9,0.1,1.3c0,0,0.1,0.1,0.1,0.1c0,0.1,0,0.2,0,0.4c0,0-0.1,0.1-0.1,0.1  c0,0,0,0.1,0,0.1c0.1,0.1,0.1,0.2,0.1,0.4c0,0.3-0.2,0.5-0.1,0.8c0,0.3,0,0.6,0,0.9c0,0.3,0,0.6,0.1,1c0,0,0,0,0.1,0  c-0.1,0-0.1,0-0.1,0.1c-0.1,0.1,0,0.2,0,0.3c0,0,0,0,0,0c0,0,0,0,0,0c0-0.1,0-0.1,0-0.2C13.1,47,13,46.9,12.9,46.8  C12.9,46.8,12.9,46.8,12.9,46.8z M13.9,35.6c0,0.1,0,0.1,0,0.2c0,0,0,0,0-0.1C13.9,35.7,13.9,35.7,13.9,35.6z M16.6,15.7  c-0.3,0.4-0.4,1-0.6,1.4c-0.2,0.5-0.5,1-0.8,1.5c-0.1,0.3-0.3,0.6-0.5,0.9c-0.4,0.6-0.9,1-1.3,1.6c-0.1,0.1-0.1,0.2-0.3,0.2  c-0.1,0-0.1-0.1-0.1-0.2c0-0.1,0-0.3,0-0.4c0,0,0,0,0-0.1c0-0.4,0-0.7-0.1-1.1c0-0.1,0-0.2,0-0.3c0.1-0.1,0.1-0.2,0-0.4  c0-0.2,0-0.4,0-0.6c0,0,0,0,0,0c0-0.1,0-0.3,0-0.4c0-0.3,0-0.6,0-0.9c0-0.1,0-0.2,0-0.2c0,0,0.1,0,0.1,0c0,0,0,0,0-0.1  c0-0.2,0-0.3,0-0.5c0.1-0.9,0.1-1.8,0.3-2.7c0-0.1,0-0.2,0-0.3c0,0,0,0,0-0.1c0,0,0-0.1,0-0.1c0.2-1.3,0.7-2.5,1.3-3.7  c0.2-0.3,0.4-0.5,0.8-0.6c0.2-0.1,0.4,0,0.5,0.2c0.3,0.4,0.5,0.7,0.5,1.2c0.1,0.6,0.2,1.2,0.3,1.8c0,0.1,0,0.1,0.1,0.2  c-0.1,0.1-0.1,0.2-0.1,0.4c0,1-0.1,2-0.3,2.9C16.6,15.4,16.7,15.5,16.6,15.7z"/>
</svg>
